/* XPM */
static char *e7ba384b6dad4d56e07cdff742e28055xIdaQbjNspqKSAQC[] = {
/* columns rows colors chars-per-pixel */
"128 128 5 1 ",
"  c None",
". c #FE5656",
"X c #FF5656",
"o c #FE5757",
"O c #FF5757",
/* pixels */
"                                                                                                                                ",
"                                                                                                                                ",
"                                                                                                                                ",
"                                                                                                                                ",
"                                                                                                                                ",
"                                                                                                                                ",
"                                                                                                                                ",
"                                                                                                                                ",
"                                                                                                                                ",
"                                                                                                                                ",
"                                                                                                                                ",
"                                                                                                                                ",
"                                                                                                                                ",
"                                                                                                                                ",
"                                                                                                                                ",
"                                                                                                                                ",
"                                                                                                                                ",
"                                                                                                                                ",
"                                                                                                                                ",
"                                                                                                                                ",
"                                                                                                                                ",
"                                                                                                                                ",
"                                                                                                                                ",
"                                                                                                                                ",
"                                                                                                                                ",
"                                                                                                                                ",
"                                                                                                                                ",
"                                                                                                                                ",
"                                                                                                                                ",
"                                                                                                                                ",
"                                                                                                                                ",
"                                                                                                                                ",
"                                     XX                                                  XX                                     ",
"                                    oOXX                                                XXOX                                    ",
"                                   XOXOX                                                OOOXX                                   ",
"                                  XXOXXOX                                              XOXXOOX                                  ",
"                                  XOXOXXOX                                            XOXOOXOX                                  ",
"                                 XXOOXXOXOX                                          XOXOXXOXOX                                 ",
"                                XXOXXOOXXOXX                                        XXOXXOOXOXO                                 ",
"                                XOXXOXXOXXOX                                        OOXXOXXOXOXO                                ",
"                                XOXOO XXOXXOX                                      XOXXOXX XOXOX                                ",
"                               XOXXOX  XOXOOXX                                    XOXOXXX  XOXXOX                               ",
"                               XOOXO    XOXXOXX                                  XOXOXOX    XOXOX                               ",
"                               XOXOX     XOXXOOO                                XXOXXOX     OXoXO                               ",
"                               XOXOX      XOXXXX                                XOXXOX      XOXOX                               ",
"                               XOXOX      XXOXOXX                              XOXXOXX      XOXOX                               ",
"                               XOXOX       XOXOOOX                            XOXXOXX       XOXOX                               ",
"                               OXXOX        XOXXOXX                          XOXXOOX        XOXOX                               ",
"                               XOXoX         XOXXOOX                        XXOXOXX         XOXOO                               ",
"                               XOXXOX         OOXXXO                        OOXXOX         XOXXOX                               ",
"                                XOXOX         XXOXXOX                      XOXXOOX        XOOXOX                                ",
"                                XOXXOX         XOXOOXX                    XXOXOXX         XOXXOX                                ",
"                                 XOOXOX         XOXXOXX                  XOOXXOX         XOXXOX                                 ",
"                    X            XOOOXOX         XOXXOOX                XOXXXOX         XOOOXOO            X                    ",
"                   XOO            XXOXOXX         XOXXXX                XOXXOX         XXOXXOX            XOX                   ",
"                   XXXX            XOXXOX         XXOXXOX              XOXXOOX        XXOXXOX            XOOX                   ",
"                   XOXOX           XXXOXOX         XOXOXOX            XOXXOXX         XOXXOX            XXOOX                   ",
"                   XOXOX            XOXOXOX         XOXXOXX          XOXOXOX         XXOXOXX            OOXOX                   ",
"                   XOXOOX            XOXOXOX         XOXXXOX        XXOXXXX         XOOOXOX            XOXXOX                   ",
"                   XOXOOOX            XOXXOXX         XOXXOX        XOXXOX         XXOXXOX            XOXOXXX                   ",
"                    XOXXOXX            OXXXOX         XOOXOXX      XOXXOX         XXOXXOX            XOXOXOX                    ",
"                     XOXXOOX           XXOXXOX         XXOXXOX    XOXOXOX         XOXXOO            XXOXXOX                     ",
"                      XOXXOX            XXOXXOX         XOXXXOX  XOXOXOX         XOXXOXX            OOXXOX                      ",
"                      XXOXOXX            XOOXXOX         XXOXOOXXXOXXOX         XOXOXOX            XOXXOOX                      ",
"                       XOXXOOX            XXOXOXX         XOXXOXOOXXOX         XXOOXOO            OOXXXOX                       ",
"                        XOXXOXX            XOXXOOX        XOOXXOOXXOO         XOOXXOX            XOXOOOX                        ",
"                         XOXXOOX           XOOXXOX         XOOXXXXOXX         XOXXOO            XXOXXOX                         ",
"                          OOXXOX            XXOXOXX         XOOXOXOX         XXOXOXX            OOXXOO                          ",
"                          XXOXOXX            XOOXXOX         XXOXOX         XOXXXOX            XOXXOXX                          ",
"                           XOXOXOX            XXXXOXX         XOOX         XXOXXOX            XOXOOXX                           ",
"                            XOXXOXX            XOXXOOX        XOO         XOOXXOX            XOXOOOX                            ",
"                             XOXXOOO            XOXXOX         XX         XOXXOX            XXOXOXX                             ",
"                              XOXXOX            XXOXXOX                  XOXXOXX            XOXXOX                              ",
"                              XXOXOXX            XOXOOOX                XOXOOXX            XOXXOOX                              ",
"                               XOXXOOX            XOXXXOX              XOXXOOX            XOXXOXX                               ",
"                                OOXXOXX            XOXXOOX            XXOXOXX            XOXOOOX                                ",
"                                 XOXXOXX            XOXXOX            XOXXOX            XXOXXXX                                 ",
"                                  OOXXOX            XXOXOXX          XOXXOOX            OOXXOX                                  ",
"                                  XXOXOXX            XOXOOOX        XOXOOXX            XOXXOOX                                  ",
"                                   XOXOOOX            XOXXOXX      XOXOXOX            XOXXOXX                                   ",
"                                    OOXXOXX            XOXXOOX    XXOXXOX            XOXOXOX                                    ",
"                                     XOXXOXX            OOXXOX    OOXXOX            XXOXXOX                                     ",
"                                      OOXXOX            XXOXOXX  XOXXXOX            OOXXOX                                      ",
"                                      XXOXXOX            XOXXOOXOOXXOXX            XOXXOX                                       ",
"                                       XOXOOOX            XOXOXOXXXOOX            XXOXOXX                                       ",
"                                        XOXXXOX            XOXOXXXOXX            XOXXXOX                                        ",
"                                         XOXXOXX            XOXOOXOX            XXOXXOX                                         ",
"                                          OOXXOO            XOXOXOXO            OOXXOX                                          ",
"                                          XXOXXOX           XOXOOXOX           XOXXOX                                           ",
"                                           XOXOXOX         XOXOOOXOXX         XOXXXXX                                           ",
"                                            XOXOXOXX     XOOXOXXXXXOOOX     XXOXOXOX                                            ",
"                                             XOXXXOXXOOXXXXXXXOOOOXOXOXXXXXXOOXOXOX                                             ",
"                                              XXOXXOOXXOOOXXXOX XXOXXXOOOOOOXXXXOX                                              ",
"                                               XXOOXXOXXXXXOOX    XOOXXXXXXXXOOOX                                               ",
"                                                XXXOOXOOOOOXX      XXOOOOOOOOXXX                                                ",
"                                                  XXXOXXXOX          XXXXXXXXX                                                  ",
"                                                                                                                                ",
"                                                                                                                                ",
"                                                                                                                                ",
"                                                                                                                                ",
"                                                                                                                                ",
"                                                                                                                                ",
"                                                                                                                                ",
"                                                                                                                                ",
"                                                                                                                                ",
"                                                                                                                                ",
"                                                                                                                                ",
"                                                                                                                                ",
"                                                                                                                                ",
"                                                                                                                                ",
"                                                                                                                                ",
"                                                                                                                                ",
"                                                                                                                                ",
"                                                                                                                                ",
"                                                                                                                                ",
"                                                                                                                                ",
"                                                                                                                                ",
"                                                                                                                                ",
"                                                                                                                                ",
"                                                                                                                                ",
"                                                                                                                                ",
"                                                                                                                                ",
"                                                                                                                                ",
"                                                                                                                                ",
"                                                                                                                                ",
"                                                                                                                                ",
"                                                                                                                                ",
"                                                                                                                                "
};
