/* XPM */
static char *_c2387e6c5684d2ff481d9b5802f35bbta8fxfYcDJK8lQYe[] = {
/* columns rows colors chars-per-pixel */
"16 16 2 1 ",
"  c None",
". c #FF5656",
/* pixels */
"                ",
"                ",
"                ",
"                ",
"    .      .    ",
"    ..    ..    ",
"    . .  . .    ",
"       ..       ",
"   .        .   ",
"    . .  . .    ",
"     . .. .     ",
"      ....      ",
"                ",
"                ",
"                ",
"                "
};
