/* XPM */
static char *_37ce5203c6742d58d3fbe7a7d7180dbt9GUsTf4gPnFMtBu[] = {
/* columns rows colors chars-per-pixel */
"64 64 5 1 ",
"  c None",
". c #FE5656",
"X c #FF5656",
"o c #FE5757",
"O c #FF5757",
/* pixels */
"                                                                ",
"                                                                ",
"                                                                ",
"                                                                ",
"                                                                ",
"                                                                ",
"                                                                ",
"                                                                ",
"                                                                ",
"                                                                ",
"                                                                ",
"                                                                ",
"                                                                ",
"                                                                ",
"                                                                ",
"                                                                ",
"                  XX                        XX                  ",
"                 XXX                        XoX                 ",
"                 XooX                      XXoX                 ",
"                XoXXoX                    XooooX                ",
"                XoXXoXX                  XXXXXoX                ",
"               ooX  Xoo                 XXoX  oX                ",
"               ooX   XoX                XoX   Xoo               ",
"               ooX    XoX              XoX    XXX               ",
"                oX    XXoX            ooo     XX                ",
"                XoX    XXXX          XXXX    XoX                ",
"                XoXX    XoX          ooX    XXoX                ",
"          X      XoX     XoX        XoX     ooX      X          ",
"         XoX      XoX     XoX      XoX     XoX      Xoo         ",
"         XXXX      XoX    XXoX    XoXX    XoX      XXoo         ",
"          XXX      XXXX    XXXX  XoXX    XXXX      ooX          ",
"           XoX      XoXX    Xoo  XoX    XooX      XoX           ",
"            XoX      XoX     XoXXoX     XoX      XoX            ",
"            XXXX      XoX     XooX     XoX      XoXX            ",
"             XoXX      ooo    XXXX    Xoo      XXoX             ",
"              XoX      XXXX    XX    XXXX      XoX              ",
"               XoX      Xoo         XXoX      XoX               ",
"                ooX      XoX        XoX      XoX                ",
"                XXXX      XoX      XoX      XXXX                ",
"                 Xoo      XooX    Xoo      XXoX                 ",
"                  XoX      XXXX  XoXX      XoX                  ",
"                   XoX      Xoo  ooX      XoX                   ",
"                   XXoX      XoXXoX      ooo                    ",
"                    XXXX      XooX      XXoX                    ",
"                     XoX      XXoX     XXoX                     ",
"                      XoXX   XXooXX   XXoX                      ",
"                       XooXXXooXXXoXXXooX                       ",
"                        XXooXXX  XXXoooX                        ",
"                          XX         X                          ",
"                                                                ",
"                                                                ",
"                                                                ",
"                                                                ",
"                                                                ",
"                                                                ",
"                                                                ",
"                                                                ",
"                                                                ",
"                                                                ",
"                                                                ",
"                                                                ",
"                                                                ",
"                                                                ",
"                                                                "
};
