/* XPM */
static char *_b3e19281f794917aa7abcceae5f673aWUMU4WcScbWMku1d[] = {
/* columns rows colors chars-per-pixel */
"32 32 4 1 ",
"  c None",
". c #FE5656",
"X c #FF5656",
"o c #FF5757",
/* pixels */
"                                ",
"                                ",
"                                ",
"                                ",
"                                ",
"                                ",
"                                ",
"                                ",
"         X            X         ",
"        XXX          XoX        ",
"        X XX        XX X        ",
"        X  X        X  X        ",
"        X  XX      XX  X        ",
"        XX  XX    XX  oX        ",
"     X   XX  XX  XX  XX   o     ",
"     XX   XX  XXXX  XX   XX     ",
"      XX   X   XX   X   XX      ",
"       X   XX  XX  XX  XX       ",
"        o   XX    XX   X        ",
"        XX   XX  Xo   XX        ",
"         XX   XXoX   XX         ",
"          XX   XX   Xo          ",
"           XX  XX  XX           ",
"            XXXXXXXo            ",
"                                ",
"                                ",
"                                ",
"                                ",
"                                ",
"                                ",
"                                ",
"                                "
};
