<svg xmlns="http://www.w3.org/2000/svg" xmlns:xlink="http://www.w3.org/1999/xlink" width="350" zoomAndPan="magnify" viewBox="0 0 262.5 72" height="96" preserveAspectRatio="xMidYMid meet" version="1.0"><defs><g/><clipPath id="bcbfbbf0d6"><path d="M 86 28.144531 L 116.6875 28.144531 L 116.6875 49.894531 L 86 49.894531 Z M 86 28.144531 " clip-rule="nonzero"/></clipPath><clipPath id="f3ed1e9f26"><path d="M 122 37.308594 L 176 37.308594 L 176 38.058594 L 122 38.058594 Z M 122 37.308594 " clip-rule="nonzero"/></clipPath></defs><g clip-path="url(#bcbfbbf0d6)"><path fill="#ff5757" d="M 101.316406 41.886719 L 100.621094 41.023438 L 92.59375 31.019531 L 92.523438 31.109375 C 91.683594 32.15625 91.683594 33.609375 92.523438 34.660156 L 101.324219 45.621094 L 110.125 34.660156 C 110.96875 33.609375 110.96875 32.15625 110.125 31.109375 L 110.046875 31.019531 L 102.019531 41.023438 L 101.324219 41.886719 Z M 101.316406 48.441406 C 101.136719 48.628906 100.957031 48.804688 100.769531 48.953125 C 98.886719 50.457031 96.394531 50.121094 94.886719 48.242188 L 86.503906 37.792969 C 86.007812 37.167969 86.007812 36.308594 86.503906 35.6875 L 86.789062 35.320312 L 96.265625 47.136719 C 97.160156 48.242188 98.527344 48.460938 99.660156 47.570312 L 100.183594 47.046875 L 91.285156 35.945312 C 89.808594 34.105469 89.808594 31.574219 91.285156 29.734375 L 91.425781 29.558594 L 92.554688 28.144531 L 101.316406 39.066406 L 110.078125 28.144531 L 111.207031 29.558594 L 111.347656 29.734375 C 112.824219 31.574219 112.824219 34.105469 111.347656 35.945312 L 102.445312 47.046875 L 102.972656 47.570312 C 104.09375 48.46875 105.472656 48.242188 106.367188 47.136719 L 115.839844 35.320312 L 116.128906 35.6875 C 116.625 36.308594 116.625 37.167969 116.128906 37.792969 L 107.746094 48.242188 C 106.238281 50.121094 103.757812 50.457031 101.859375 48.953125 C 101.671875 48.804688 101.484375 48.628906 101.316406 48.441406 Z M 101.316406 48.441406 " fill-opacity="1" fill-rule="evenodd"/></g><g fill="#e8cfc1" fill-opacity="1"><g transform="translate(120.333355, 35.00329)"><g><path d="M 1.355469 0 L 5.035156 0 L 5.898438 -0.863281 L 5.898438 -4.441406 L 5.035156 -4.441406 L 5.035156 -0.863281 L 3.628906 -0.863281 L 3.628906 -3.253906 L 2.765625 -3.253906 L 2.765625 -0.863281 L 1.355469 -0.863281 L 1.355469 -4.441406 L 0.492188 -4.441406 L 0.492188 -0.863281 Z M 1.355469 0 "/></g></g></g><g fill="#e8cfc1" fill-opacity="1"><g transform="translate(127.802233, 35.00329)"><g><path d="M 0.492188 0 L 1.355469 0 L 1.355469 -1.789062 L 4.363281 -1.789062 L 4.363281 0 L 5.226562 0 L 5.226562 -3.578125 L 4.363281 -4.441406 L 1.355469 -4.441406 L 0.492188 -3.578125 Z M 1.355469 -2.652344 L 1.355469 -3.578125 L 4.363281 -3.578125 L 4.363281 -2.652344 Z M 1.355469 -2.652344 "/></g></g></g><g fill="#e8cfc1" fill-opacity="1"><g transform="translate(134.600543, 35.00329)"><g><path d="M 1.355469 0 L 4.132812 0 L 4.132812 -0.863281 L 1.355469 -0.863281 L 1.355469 -4.441406 L 0.492188 -4.441406 L 0.492188 -0.863281 Z M 1.355469 0 "/></g></g></g><g fill="#e8cfc1" fill-opacity="1"><g transform="translate(140.304364, 35.00329)"><g><path d="M 1.355469 0 L 4.132812 0 L 4.132812 -0.863281 L 1.355469 -0.863281 L 1.355469 -4.441406 L 0.492188 -4.441406 L 0.492188 -0.863281 Z M 1.355469 0 "/></g></g></g><g fill="#e8cfc1" fill-opacity="1"><g transform="translate(146.008184, 35.00329)"><g><path d="M 0.492188 0 L 1.355469 0 L 1.355469 -1.789062 L 4.363281 -1.789062 L 4.363281 0 L 5.226562 0 L 5.226562 -3.578125 L 4.363281 -4.441406 L 1.355469 -4.441406 L 0.492188 -3.578125 Z M 1.355469 -2.652344 L 1.355469 -3.578125 L 4.363281 -3.578125 L 4.363281 -2.652344 Z M 1.355469 -2.652344 "/></g></g></g><g fill="#e8cfc1" fill-opacity="1"><g transform="translate(152.806493, 35.00329)"><g><path d="M 1.355469 0 L 4.75 0 L 4.75 -0.863281 L 1.355469 -0.863281 L 1.355469 -3.578125 L 4.75 -3.578125 L 4.75 -4.441406 L 1.355469 -4.441406 L 0.492188 -3.578125 L 0.492188 -0.863281 Z M 1.355469 0 "/></g></g></g><g fill="#e8cfc1" fill-opacity="1"><g transform="translate(159.126928, 35.00329)"><g><path d="M 1.355469 0 L 4.363281 0 L 5.226562 -0.863281 L 5.226562 -3.578125 L 4.363281 -4.441406 L 1.355469 -4.441406 L 0.492188 -3.578125 L 0.492188 -0.863281 Z M 1.355469 -0.863281 L 1.355469 -3.578125 L 4.363281 -3.578125 L 4.363281 -0.863281 Z M 1.355469 -0.863281 "/></g></g></g><g fill="#e8cfc1" fill-opacity="1"><g transform="translate(165.925237, 35.00329)"><g><path d="M 0.492188 0 L 3.886719 0 L 3.886719 -0.863281 L 2.621094 -0.863281 L 2.621094 -3.578125 L 3.886719 -3.578125 L 3.886719 -4.441406 L 0.492188 -4.441406 L 0.492188 -3.578125 L 1.757812 -3.578125 L 1.757812 -0.863281 L 0.492188 -0.863281 Z M 0.492188 0 "/></g></g></g><g fill="#e8cfc1" fill-opacity="1"><g transform="translate(171.382411, 35.00329)"><g><path d="M 0.492188 0 L 1.355469 0 L 1.355469 -3.578125 L 4.363281 -3.578125 L 4.363281 0 L 5.226562 0 L 5.226562 -3.578125 L 4.363281 -4.441406 L 1.355469 -4.441406 L 0.492188 -3.578125 Z M 0.492188 0 "/></g></g></g><g clip-path="url(#f3ed1e9f26)"><path fill="#ff5757" d="M 175.574219 38.054688 L 122.273438 38.054688 L 122.273438 37.308594 L 175.574219 37.308594 L 175.574219 38.054688 " fill-opacity="1" fill-rule="nonzero"/></g><g fill="#e8cfc1" fill-opacity="1"><g transform="translate(125.458446, 42.453608)"><g><path d="M 0.757812 0 L 2.355469 0 L 2.835938 -0.484375 L 2.835938 -2.964844 L 2.355469 -2.964844 L 2.355469 -2.484375 L 0.757812 -2.484375 L 0.277344 -2 L 0.277344 -0.484375 Z M 0.757812 -0.484375 L 0.757812 -2 L 2.355469 -2 L 2.355469 -0.484375 Z M 0.757812 -0.484375 "/></g></g></g><g fill="#e8cfc1" fill-opacity="1"><g transform="translate(129.174855, 42.453608)"><g><path d="M 0.757812 0 L 2.441406 0 L 2.921875 -0.484375 L 2.921875 -2 L 2.441406 -2.484375 L 0.757812 -2.484375 L 0.277344 -2 L 0.277344 -0.484375 Z M 0.757812 -0.484375 L 0.757812 -2 L 2.441406 -2 L 2.441406 -0.484375 Z M 0.757812 -0.484375 "/></g></g></g><g fill="#e8cfc1" fill-opacity="1"><g transform="translate(132.977491, 42.453608)"><g><path d="M 0.277344 0 L 0.757812 0 L 0.757812 -2 L 2.441406 -2 L 2.441406 0 L 2.921875 0 L 2.921875 -2 L 2.441406 -2.484375 L 0.757812 -2.484375 L 0.277344 -2 Z M 0.277344 0 "/></g></g></g><g fill="#e8cfc1" fill-opacity="1"><g transform="translate(136.780127, 42.453608)"><g><path d="M 0.277344 -2.535156 L 0.757812 -2.535156 L 0.757812 -3.019531 L 0.277344 -3.019531 Z M 0.277344 -2.535156 "/></g></g></g><g fill="#e8cfc1" fill-opacity="1"><g transform="translate(138.418493, 42.453608)"><g><path d="M 1.316406 0 L 1.796875 0 L 1.796875 -2 L 2.835938 -2 L 2.835938 -2.484375 L 0.277344 -2.484375 L 0.277344 -2 L 1.316406 -2 Z M 1.316406 0 "/></g></g></g><g fill="#e8cfc1" fill-opacity="1"><g transform="translate(142.134902, 42.453608)"><g/></g></g><g fill="#e8cfc1" fill-opacity="1"><g transform="translate(144.894206, 42.453608)"><g><path d="M 0.757812 0 L 2.441406 0 L 2.921875 -0.484375 L 2.921875 -2.484375 L 2.441406 -2.484375 L 2.441406 -0.484375 L 0.757812 -0.484375 L 0.757812 -2.484375 L 0.277344 -2.484375 L 0.277344 -0.484375 Z M 0.757812 0 "/></g></g></g><g fill="#e8cfc1" fill-opacity="1"><g transform="translate(148.696841, 42.453608)"><g><path d="M 0.277344 0 L 2.359375 0 L 2.359375 -0.00390625 L 2.835938 -0.484375 L 2.835938 -1 L 2.355469 -1.484375 L 0.757812 -1.484375 L 0.757812 -2 L 2.835938 -2 L 2.835938 -2.484375 L 0.753906 -2.484375 L 0.753906 -2.480469 L 0.277344 -2 L 0.277344 -1.484375 L 0.757812 -1 L 2.355469 -1 L 2.355469 -0.484375 L 0.277344 -0.484375 Z M 0.277344 0 "/></g></g></g><g fill="#e8cfc1" fill-opacity="1"><g transform="translate(152.41325, 42.453608)"><g><path d="M 0.757812 0 L 2.914062 0 L 2.914062 -0.484375 L 0.757812 -0.484375 L 0.757812 -1 L 2.355469 -1 L 2.355469 -1.484375 L 0.757812 -1.484375 L 0.757812 -2 L 2.914062 -2 L 2.914062 -2.484375 L 0.757812 -2.484375 L 0.277344 -2 L 0.277344 -0.484375 Z M 0.757812 0 "/></g></g></g><g fill="#e8cfc1" fill-opacity="1"><g transform="translate(156.207263, 42.453608)"><g/></g></g><g fill="#e8cfc1" fill-opacity="1"><g transform="translate(158.966567, 42.453608)"><g><path d="M 0.277344 0 L 2.171875 0 L 2.171875 -0.484375 L 1.464844 -0.484375 L 1.464844 -2 L 2.171875 -2 L 2.171875 -2.484375 L 0.277344 -2.484375 L 0.277344 -2 L 0.984375 -2 L 0.984375 -0.484375 L 0.277344 -0.484375 Z M 0.277344 0 "/></g></g></g><g fill="#e8cfc1" fill-opacity="1"><g transform="translate(162.019038, 42.453608)"><g><path d="M 1.316406 0 L 1.796875 0 L 1.796875 -2 L 2.835938 -2 L 2.835938 -2.484375 L 0.277344 -2.484375 L 0.277344 -2 L 1.316406 -2 Z M 1.316406 0 "/></g></g></g><g fill="#e8cfc1" fill-opacity="1"><g transform="translate(165.735447, 42.453608)"><g><path d="M 0.277344 -0.722656 L 0.757812 -0.722656 L 0.757812 -1 L 2.355469 -1 L 2.355469 -2 L 1.871094 -2.484375 L 0.277344 -2.484375 L 0.277344 -2 L 1.871094 -2 L 1.871094 -1.484375 L 0.757812 -1.484375 L 0.277344 -1 Z M 0.277344 0 L 0.757812 0 L 0.757812 -0.484375 L 0.277344 -0.484375 Z M 0.277344 0 "/></g></g></g><g fill="#e8cfc1" fill-opacity="1"><g transform="translate(135.504158, 48.442957)"><g><path d="M 0.277344 0 L 2.359375 0 L 2.359375 -0.00390625 L 2.835938 -0.484375 L 2.835938 -1 L 2.355469 -1.484375 L 0.757812 -1.484375 L 0.757812 -2 L 2.835938 -2 L 2.835938 -2.484375 L 0.753906 -2.484375 L 0.753906 -2.480469 L 0.277344 -2 L 0.277344 -1.484375 L 0.757812 -1 L 2.355469 -1 L 2.355469 -0.484375 L 0.277344 -0.484375 Z M 0.277344 0 "/></g></g></g><g fill="#e8cfc1" fill-opacity="1"><g transform="translate(139.220568, 48.442957)"><g><path d="M 0.757812 0 L 2.914062 0 L 2.914062 -0.484375 L 0.757812 -0.484375 L 0.757812 -1 L 2.355469 -1 L 2.355469 -1.484375 L 0.757812 -1.484375 L 0.757812 -2 L 2.914062 -2 L 2.914062 -2.484375 L 0.757812 -2.484375 L 0.277344 -2 L 0.277344 -0.484375 Z M 0.757812 0 "/></g></g></g><g fill="#e8cfc1" fill-opacity="1"><g transform="translate(143.014581, 48.442957)"><g><path d="M 0.757812 0 L 2.3125 0 L 2.3125 -0.484375 L 0.757812 -0.484375 L 0.757812 -2.484375 L 0.277344 -2.484375 L 0.277344 -0.484375 Z M 0.757812 0 "/></g></g></g><g fill="#e8cfc1" fill-opacity="1"><g transform="translate(146.205015, 48.442957)"><g><path d="M 0.757812 0 L 2.3125 0 L 2.3125 -0.484375 L 0.757812 -0.484375 L 0.757812 -2.484375 L 0.277344 -2.484375 L 0.277344 -0.484375 Z M 0.757812 0 "/></g></g></g><g fill="#e8cfc1" fill-opacity="1"><g transform="translate(149.395447, 48.442957)"><g/></g></g><g fill="#e8cfc1" fill-opacity="1"><g transform="translate(152.154751, 48.442957)"><g><path d="M 0.277344 0 L 2.171875 0 L 2.171875 -0.484375 L 1.464844 -0.484375 L 1.464844 -2 L 2.171875 -2 L 2.171875 -2.484375 L 0.277344 -2.484375 L 0.277344 -2 L 0.984375 -2 L 0.984375 -0.484375 L 0.277344 -0.484375 Z M 0.277344 0 "/></g></g></g><g fill="#e8cfc1" fill-opacity="1"><g transform="translate(155.207221, 48.442957)"><g><path d="M 1.316406 0 L 1.796875 0 L 1.796875 -2 L 2.835938 -2 L 2.835938 -2.484375 L 0.277344 -2.484375 L 0.277344 -2 L 1.316406 -2 Z M 1.316406 0 "/></g></g></g></svg>